<svg xmlns="http://www.w3.org/2000/svg" width="32.502" height="30.25" viewBox="0 0 32.502 30.25">
  <g id="check-box" transform="translate(-2.875 -2.875)">
    <path id="Path_2" data-name="Path 2" d="M34.546,5.954a1.125,1.125,0,0,1,0,1.593L18.8,23.3a1.125,1.125,0,0,1-1.593,0l-6.75-6.75a1.126,1.126,0,0,1,1.593-1.593L18,20.909,32.954,5.953a1.125,1.125,0,0,1,1.593,0Z" fill="#fc3e44" stroke="#fc3e44" stroke-width="1" fill-rule="evenodd"/>
    <path id="Path_3" data-name="Path 3" d="M3.375,29.25A3.375,3.375,0,0,0,6.75,32.625h22.5a3.375,3.375,0,0,0,3.375-3.375V18a1.125,1.125,0,0,0-2.25,0V29.25a1.125,1.125,0,0,1-1.125,1.125H6.75A1.125,1.125,0,0,1,5.625,29.25V6.75A1.125,1.125,0,0,1,6.75,5.625h18a1.125,1.125,0,0,0,0-2.25h-18A3.375,3.375,0,0,0,3.375,6.75Z" fill="#fc3e44" stroke="#fc3e44" stroke-width="1" fill-rule="evenodd"/>
  </g>
</svg>
