<svg xmlns="http://www.w3.org/2000/svg" width="16" height="16" viewBox="0 0 16 16">
  <path id="phone" d="M15.125,11.125a.869.869,0,0,1,.6.25A.816.816,0,0,1,16,12v3.125a.93.93,0,0,1-.875.875,14.872,14.872,0,0,1-7.6-2.021,14.926,14.926,0,0,1-5.5-5.5A14.872,14.872,0,0,1,0,.875a.836.836,0,0,1,.271-.6A.838.838,0,0,1,.875,0H4a.815.815,0,0,1,.625.271.871.871,0,0,1,.25.6,9.948,9.948,0,0,0,.5,3.167.852.852,0,0,1-.208.917L3.208,6.916a13.071,13.071,0,0,0,5.875,5.875l1.958-1.958a.852.852,0,0,1,.917-.208,9.948,9.948,0,0,0,3.167.5ZM14.208,8A5.986,5.986,0,0,0,12.4,3.6,5.986,5.986,0,0,0,8,1.792V0a7.715,7.715,0,0,1,5.667,2.333A7.715,7.715,0,0,1,16,8H14.208ZM10.666,8A2.632,2.632,0,0,0,8,5.333V3.542a4.291,4.291,0,0,1,3.146,1.312A4.291,4.291,0,0,1,12.458,8H10.667Z" fill="#580001"/>
</svg>
