<svg xmlns="http://www.w3.org/2000/svg" width="18" height="18" viewBox="0 0 18 18">
  <path id="phone-menu" d="M17.015,12.516a.977.977,0,0,1,.68.281.918.918,0,0,1,.3.7v3.515a1.046,1.046,0,0,1-.984.985,16.731,16.731,0,0,1-8.554-2.274A16.792,16.792,0,0,1,2.273,9.539,16.731,16.731,0,0,1,0,.984.941.941,0,0,1,.3.305.943.943,0,0,1,.984,0H4.5a.917.917,0,0,1,.7.3.98.98,0,0,1,.281.68,11.192,11.192,0,0,0,.563,3.563.959.959,0,0,1-.234,1.031l-2.2,2.2a14.705,14.705,0,0,0,6.609,6.61l2.2-2.2a.959.959,0,0,1,1.031-.234,11.192,11.192,0,0,0,3.562.563ZM15.984,9a6.734,6.734,0,0,0-2.039-4.945A6.734,6.734,0,0,0,9,2.016V0a8.679,8.679,0,0,1,6.375,2.625A8.679,8.679,0,0,1,18,9H15.985ZM12,9A2.961,2.961,0,0,0,9,6V3.984a4.828,4.828,0,0,1,3.539,1.477A4.828,4.828,0,0,1,14.016,9H12Z" fill="#fff"/>
</svg>
